<mxfile host="app.diagrams.net" agent="Mozilla/5.0 (Macintosh; Intel Mac OS X 10_15_7) AppleWebKit/605.1.15 (KHTML, like Gecko) Version/18.5 Safari/605.1.15" version="28.0.7">
  <diagram name="Page-1" id="QUDllDqmJ99NRzBA14GD">
    <mxGraphModel dx="1735" dy="651" grid="1" gridSize="10" guides="1" tooltips="1" connect="1" arrows="1" fold="1" page="1" pageScale="1" pageWidth="850" pageHeight="1100" math="0" shadow="0">
      <root>
        <mxCell id="0" />
        <mxCell id="1" parent="0" />
        <mxCell id="zpHpnb-nOYKSuRvg5qSJ-3" value="" style="edgeStyle=none;curved=1;rounded=0;orthogonalLoop=1;jettySize=auto;html=1;fontSize=12;startSize=8;endSize=8;" edge="1" parent="1" source="zpHpnb-nOYKSuRvg5qSJ-1" target="zpHpnb-nOYKSuRvg5qSJ-2">
          <mxGeometry relative="1" as="geometry" />
        </mxCell>
        <mxCell id="zpHpnb-nOYKSuRvg5qSJ-10" value="" style="edgeStyle=none;curved=1;rounded=0;orthogonalLoop=1;jettySize=auto;html=1;fontSize=12;startSize=8;endSize=8;" edge="1" parent="1" target="zpHpnb-nOYKSuRvg5qSJ-9">
          <mxGeometry relative="1" as="geometry">
            <mxPoint x="-10" y="389" as="sourcePoint" />
          </mxGeometry>
        </mxCell>
        <mxCell id="zpHpnb-nOYKSuRvg5qSJ-1" value="Phase 1: Prototype" style="rounded=1;whiteSpace=wrap;html=1;" vertex="1" parent="1">
          <mxGeometry x="-90" y="390" width="180" height="65" as="geometry" />
        </mxCell>
        <mxCell id="zpHpnb-nOYKSuRvg5qSJ-5" value="" style="edgeStyle=none;curved=1;rounded=0;orthogonalLoop=1;jettySize=auto;html=1;fontSize=12;startSize=8;endSize=8;" edge="1" parent="1" source="zpHpnb-nOYKSuRvg5qSJ-2" target="zpHpnb-nOYKSuRvg5qSJ-4">
          <mxGeometry relative="1" as="geometry" />
        </mxCell>
        <mxCell id="zpHpnb-nOYKSuRvg5qSJ-7" value="" style="edgeStyle=none;curved=1;rounded=0;orthogonalLoop=1;jettySize=auto;html=1;fontSize=12;startSize=8;endSize=8;" edge="1" parent="1" source="zpHpnb-nOYKSuRvg5qSJ-2" target="zpHpnb-nOYKSuRvg5qSJ-6">
          <mxGeometry relative="1" as="geometry" />
        </mxCell>
        <mxCell id="zpHpnb-nOYKSuRvg5qSJ-26" value="" style="edgeStyle=none;curved=1;rounded=0;orthogonalLoop=1;jettySize=auto;html=1;fontSize=12;startSize=8;endSize=8;" edge="1" parent="1" source="zpHpnb-nOYKSuRvg5qSJ-2" target="zpHpnb-nOYKSuRvg5qSJ-25">
          <mxGeometry relative="1" as="geometry" />
        </mxCell>
        <mxCell id="zpHpnb-nOYKSuRvg5qSJ-2" value="Phase 2 : Next (Smarter Insights)" style="whiteSpace=wrap;html=1;rounded=1;" vertex="1" parent="1">
          <mxGeometry x="240" y="390" width="200" height="67.5" as="geometry" />
        </mxCell>
        <mxCell id="zpHpnb-nOYKSuRvg5qSJ-4" value="Phase 3 : Later (Predictive Intelligence )" style="whiteSpace=wrap;html=1;rounded=1;" vertex="1" parent="1">
          <mxGeometry x="500" y="390" width="220" height="67.5" as="geometry" />
        </mxCell>
        <mxCell id="zpHpnb-nOYKSuRvg5qSJ-14" value="" style="edgeStyle=none;curved=1;rounded=0;orthogonalLoop=1;jettySize=auto;html=1;fontSize=12;startSize=8;endSize=8;" edge="1" parent="1" source="zpHpnb-nOYKSuRvg5qSJ-6" target="zpHpnb-nOYKSuRvg5qSJ-13">
          <mxGeometry relative="1" as="geometry" />
        </mxCell>
        <mxCell id="zpHpnb-nOYKSuRvg5qSJ-18" value="" style="edgeStyle=none;curved=1;rounded=0;orthogonalLoop=1;jettySize=auto;html=1;fontSize=12;startSize=8;endSize=8;" edge="1" parent="1" source="zpHpnb-nOYKSuRvg5qSJ-6" target="zpHpnb-nOYKSuRvg5qSJ-17">
          <mxGeometry relative="1" as="geometry" />
        </mxCell>
        <mxCell id="zpHpnb-nOYKSuRvg5qSJ-28" value="" style="edgeStyle=none;curved=1;rounded=0;orthogonalLoop=1;jettySize=auto;html=1;fontSize=12;startSize=8;endSize=8;" edge="1" parent="1" source="zpHpnb-nOYKSuRvg5qSJ-6" target="zpHpnb-nOYKSuRvg5qSJ-27">
          <mxGeometry relative="1" as="geometry" />
        </mxCell>
        <mxCell id="zpHpnb-nOYKSuRvg5qSJ-6" value="Fine-Tune Small LLM&lt;div&gt;(TinyLlama )&lt;/div&gt;" style="ellipse;shape=cloud;whiteSpace=wrap;html=1;rounded=1;" vertex="1" parent="1">
          <mxGeometry x="260" y="240" width="160" height="80" as="geometry" />
        </mxCell>
        <mxCell id="zpHpnb-nOYKSuRvg5qSJ-9" value="Keyword matching" style="ellipse;shape=cloud;whiteSpace=wrap;html=1;rounded=1;" vertex="1" parent="1">
          <mxGeometry x="-80" y="280" width="140" height="80" as="geometry" />
        </mxCell>
        <mxCell id="zpHpnb-nOYKSuRvg5qSJ-24" value="" style="edgeStyle=none;curved=1;rounded=0;orthogonalLoop=1;jettySize=auto;html=1;fontSize=12;startSize=8;endSize=8;exitX=0.579;exitY=0.125;exitDx=0;exitDy=0;exitPerimeter=0;" edge="1" parent="1" source="zpHpnb-nOYKSuRvg5qSJ-13" target="zpHpnb-nOYKSuRvg5qSJ-23">
          <mxGeometry relative="1" as="geometry" />
        </mxCell>
        <mxCell id="zpHpnb-nOYKSuRvg5qSJ-13" value="&lt;font style=&quot;font-size: 10px;&quot;&gt;Task 3. Extract intents&amp;nbsp;&lt;/font&gt;&lt;div&gt;&lt;font style=&quot;font-size: 10px;&quot;&gt;&amp;amp; entities&lt;/font&gt;&lt;/div&gt;" style="ellipse;shape=cloud;whiteSpace=wrap;html=1;rounded=1;" vertex="1" parent="1">
          <mxGeometry x="470" y="180" width="190" height="80" as="geometry" />
        </mxCell>
        <mxCell id="zpHpnb-nOYKSuRvg5qSJ-22" value="" style="edgeStyle=none;curved=1;rounded=0;orthogonalLoop=1;jettySize=auto;html=1;fontSize=12;startSize=8;endSize=8;" edge="1" parent="1" target="zpHpnb-nOYKSuRvg5qSJ-21">
          <mxGeometry relative="1" as="geometry">
            <mxPoint x="338" y="140" as="sourcePoint" />
          </mxGeometry>
        </mxCell>
        <mxCell id="zpHpnb-nOYKSuRvg5qSJ-17" value="&lt;font style=&quot;font-size: 10px;&quot;&gt;Task 2. Generate&amp;nbsp;&lt;/font&gt;&lt;div&gt;&lt;font style=&quot;font-size: 10px;&quot;&gt;Human-Like Insight&lt;/font&gt;&lt;/div&gt;" style="ellipse;shape=cloud;whiteSpace=wrap;html=1;rounded=1;" vertex="1" parent="1">
          <mxGeometry x="250" y="140" width="190" height="80" as="geometry" />
        </mxCell>
        <mxCell id="zpHpnb-nOYKSuRvg5qSJ-21" value="&lt;span style=&quot;caret-color: rgb(0, 0, 0); color: rgb(0, 0, 0); font-family: Helvetica; font-style: normal; font-variant-caps: normal; font-weight: 400; letter-spacing: normal; text-align: center; text-indent: 0px; text-transform: none; white-space: normal; word-spacing: 0px; -webkit-text-stroke-width: 0px; text-decoration: none; float: none; display: inline !important;&quot;&gt;&lt;font style=&quot;font-size: 8px;&quot;&gt;E.g. &quot;In Druk Shcool, we notice that several students are struggling in English. Kinley and Pema scored below 40, which puts them at risk. Consider organizing peer tutoring or extra reading sessions to support them&quot;&lt;/font&gt;&lt;/span&gt;" style="whiteSpace=wrap;html=1;rounded=1;" vertex="1" parent="1">
          <mxGeometry x="250" y="30" width="175" height="80" as="geometry" />
        </mxCell>
        <mxCell id="zpHpnb-nOYKSuRvg5qSJ-23" value="&lt;font style=&quot;font-size: 8px;&quot;&gt;Eg. &amp;nbsp;Training the model &quot;How is Druk School&amp;nbsp;&lt;/font&gt;&lt;div&gt;&lt;font style=&quot;font-size: 8px;&quot;&gt;doing in English&quot;&lt;/font&gt;&lt;/div&gt;" style="whiteSpace=wrap;html=1;rounded=1;" vertex="1" parent="1">
          <mxGeometry x="505" y="50" width="155" height="60" as="geometry" />
        </mxCell>
        <mxCell id="zpHpnb-nOYKSuRvg5qSJ-25" value="Why? Because There is a variations in queries" style="ellipse;shape=cloud;whiteSpace=wrap;html=1;rounded=1;" vertex="1" parent="1">
          <mxGeometry x="245" y="500" width="190" height="80" as="geometry" />
        </mxCell>
        <mxCell id="zpHpnb-nOYKSuRvg5qSJ-30" value="" style="edgeStyle=none;curved=1;rounded=0;orthogonalLoop=1;jettySize=auto;html=1;fontSize=12;startSize=8;endSize=8;" edge="1" parent="1" source="zpHpnb-nOYKSuRvg5qSJ-27" target="zpHpnb-nOYKSuRvg5qSJ-29">
          <mxGeometry relative="1" as="geometry" />
        </mxCell>
        <mxCell id="zpHpnb-nOYKSuRvg5qSJ-27" value="&lt;font style=&quot;font-size: 10px;&quot;&gt;Task 1: Answer&amp;nbsp;&lt;/font&gt;&lt;div&gt;&lt;font style=&quot;font-size: 10px;&quot;&gt;Complex Queries&lt;/font&gt;&lt;/div&gt;" style="ellipse;shape=cloud;whiteSpace=wrap;html=1;rounded=1;" vertex="1" parent="1">
          <mxGeometry x="10" y="150" width="160" height="80" as="geometry" />
        </mxCell>
        <mxCell id="zpHpnb-nOYKSuRvg5qSJ-29" value="&lt;font style=&quot;font-size: 8px;&quot;&gt;Compare math performance between Druk School and Pelkhil, and suggest why one is better&lt;/font&gt;" style="whiteSpace=wrap;html=1;rounded=1;" vertex="1" parent="1">
          <mxGeometry x="10" y="50" width="160" height="70" as="geometry" />
        </mxCell>
      </root>
    </mxGraphModel>
  </diagram>
</mxfile>
